PathFileType	3	(X/Y/Z)	D:\Jess\Healthy\Labelled\HA18\20250730\SRRun01.trc
DataRate	CameraRate	NumFrames	NumMarkers	Units	OrigDataRate	OrigDataStartFrame	OrigNumFrames
250.0	250.0	4	33	mm	250.0	36250	2501
Frame#	Time	C7			T10			CLAV			LSHO			RSHO			LASIS			RASIS			LPSIS			RPSIS			LILCR			RILCR			LGTR			LTHI			LLTHI			LLEP			LPSH			LLSH			LDSH			LLMAL			LTOE			L5TH			LHEE			RGTR			RTHI			RLTHI			RLEP			RPSH			RLSH			RDSH			RLMAL			RTOE			R5TH			RHEE			
		X1	Y1	Z1	X2	Y2	Z2	X3	Y3	Z3	X4	Y4	Z4	X5	Y5	Z5	X6	Y6	Z6	X7	Y7	Z7	X8	Y8	Z8	X9	Y9	Z9	X10	Y10	Z10	X11	Y11	Z11	X12	Y12	Z12	X13	Y13	Z13	X14	Y14	Z14	X15	Y15	Z15	X16	Y16	Z16	X17	Y17	Z17	X18	Y18	Z18	X19	Y19	Z19	X20	Y20	Z20	X21	Y21	Z21	X22	Y22	Z22	X23	Y23	Z23	X24	Y24	Z24	X25	Y25	Z25	X26	Y26	Z26	X27	Y27	Z27	X28	Y28	Z28	X29	Y29	Z29	X30	Y30	Z30	X31	Y31	Z31	X32	Y32	Z32	X33	Y33	Z33	

1251	144.996	1069.341711732746	1424.619384917219	-279.4474762765794	996.9371248222868	1189.429194800714	-262.5646734387077	1182.590398388576	1314.015377552491	-304.1347951656047	1108.301952528843	1376.173834412688	-446.0746891979387	1161.372612762372	1377.995065329347	-150.2388510520749	1148.785565188957	954.1193500252135	-391.6227690903141	1162.263980425602	932.5620608494269	-185.5335001406425	964.0090981015675	1002.356566036204	-295.4654903458788	969.9219945417797	998.4467326753315	-251.9218521318812	1077.636713133368	1037.368592578359	-446.9187778364152	1112.906801772825	1025.517261324602	-136.9252880633222	1080.816660015001	868.6278052326815	-471.0258435080337	1242.095374484773	741.0905129442456	-360.6844216317528	1196.292233200375	607.6608296997916	-424.3858232212733	1225.199765438368	495.3654769482838	-397.8143469545948	1269.845924179464	415.7973953341323	-347.3904540960211	1195.227949261706	268.4760326736449	-400.1529972278067	1254.519277591838	192.4210616232928	-334.6068921530821	1195.033800567594	97.12588006431191	-358.842388640241	1343.896658171177	83.38448710173833	-357.3983649633543	1321.753704305998	52.70437288256903	-394.3384229395418	1137.474795782718	66.32200041660849	-303.8229824655493	1086.150269423304	844.4651227949432	-104.0718173631941	1160.894184108559	654.2828979404436	-212.8691751722775	1056.475964339561	558.1901976204335	-156.8746661608624	996.6000866648073	445.0232833723024	-170.8939160131935	960.545962924244	376.9501152659217	-214.8968681898023	814.3697642067362	385.570822331816	-131.2488196783274	746.4329702674455	290.6099453207531	-190.2704918543853	657.5906531622717	289.0659279400442	-146.9849346158151	631.2405927906995	157.4090543703785	-175.6761838119012	593.7343058055015	174.9993929370856	-135.0773927996878	616.4102290043101	367.6858419892372	-188.4407541917296	
1252	145	1069.261207952069	1422.097317630815	-280.3791241196623	996.6404417885068	1186.278935670112	-263.7591325497598	1182.76639880811	1310.68185611758	-304.1587914895459	1109.026118758702	1373.334564941885	-447.1523133839622	1161.031467924477	1374.96231435285	-150.0257203210024	1147.899905057814	950.9661092379052	-392.4671008590702	1162.188806106515	929.9278530486168	-185.7427383270409	963.1794133440916	997.9685039734208	-295.8377066042248	968.9625376197616	994.1011867611064	-252.1007201108802	1077.106066791212	1032.680318517242	-447.5716998579477	1112.423321631617	1021.968447259161	-136.7435787383998	1079.73160313105	864.3362354277496	-471.4095659987675	1242.894843580526	739.9544904181079	-362.2854525685042	1195.644173887671	605.3555265331828	-424.8960351673261	1224.35535381797	492.8745902592627	-398.1348324562499	1268.48845000618	413.256695311749	-347.3051030253234	1190.782896897027	267.2564377449914	-399.4391864445823	1248.479645368385	190.109126075925	-333.7979852868316	1186.203025320127	97.06639674178568	-357.9480184169698	1335.002197205343	79.41892876792804	-356.85580967988	1311.807244897172	49.95258453260511	-394.2708735290887	1127.611031370102	67.30989458853982	-303.4264489295352	1087.549059952613	840.9087326699715	-104.2676007367148	1163.560767589944	652.0022161024916	-211.6979288570514	1060.453878251766	555.1078461511602	-155.481946014239	1002.191424018045	442.5662413845251	-169.2703914035673	966.3230566318221	374.3059780188707	-212.6681542139546	819.1466288308488	386.451638127281	-130.8172708513508	750.8905817836617	291.1448084840758	-188.6528807698491	661.5130736233742	291.9812509095015	-146.4298930873869	635.4705946793682	159.7396654791384	-171.5511287752997	597.4575351822857	178.7100094808504	-131.9202897211105	620.8819648822747	369.7330188140161	-190.9259365251941	
1253	145.004	1069.194426386664	1419.653691056546	-281.284828772224	996.3237362335678	1183.171153662646	-264.9611952908601	1182.941278922768	1307.372509327481	-304.108517038455	1109.774635509569	1370.54826270828	-448.2057601319798	1160.612022251306	1372.001090002741	-149.7389326063372	1146.913841740921	947.7460346659134	-393.3966856945467	1162.030293336046	927.1982634670485	-185.9395995491006	962.2296945547803	993.4510865722159	-296.174746868707	967.8451971129564	989.6050067117835	-252.2485179674194	1076.587651692728	1027.77200103288	-448.18990577952	1112.040050736073	1018.189791982316	-136.530659262261	1078.510772046351	860.0466828832405	-471.8392598221991	1243.540732758414	738.6230068275839	-364.1839767868461	1194.688024210188	603.0712467167832	-425.5301181037655	1223.423508360226	490.5012678210644	-398.5437049068133	1267.004083819886	410.8754843686671	-347.3088625301003	1186.258552894648	266.2722614241196	-398.83934786384	1242.269901706647	188.0275913662364	-333.0831035765383	1177.238144431311	97.19108981839436	-357.0807940160299	1325.880546251886	75.90386958951294	-356.3677309365811	1301.724117246619	47.63780082487045	-394.2580198986835	1117.672388607878	68.34438046867534	-303.0764604416054	1088.960526121191	837.261694209137	-104.4274735493676	1166.246691249474	649.8620237438555	-210.4606156509964	1064.467129664446	552.2026424953639	-154.044842362662	1007.87504754278	440.289718008459	-167.5997104736948	972.2923147657503	371.8192346827418	-210.440622192531	824.126940012595	387.3256940977353	-130.5229010781576	755.6854640874059	291.5854642248252	-187.1555975200995	665.8840424937218	294.663180685413	-145.9918391369074	640.2533733234271	161.8921448333816	-167.5927739098942	601.8178272297324	182.1517410555037	-128.8624446425555	625.6514084139719	371.4686179445149	-193.3853730011905	
1254	145.008	1069.149983791134	1417.313347730774	-282.1617275633786	995.9860720767443	1180.146088519302	-266.164386141539	1183.114165723335	1304.11207088201	-303.9862593027603	1110.549321202327	1367.829089919545	-449.2232375184574	1160.121106308772	1369.133003733045	-149.3849676785388	1145.836970449788	944.4840825135169	-394.4131546861659	1161.786653147765	924.3866742643382	-186.1257245963552	961.1671634145047	988.8533701964196	-296.4582310420562	966.5806141596829	984.9984968717475	-252.3533175640988	1076.081717281502	1022.682183135605	-448.7625536282858	1111.741758793343	1014.204677813434	-136.2893617055705	1077.152773430464	855.8053225886434	-472.3085614974647	1244.004037210419	737.0643519867276	-366.3782905892237	1193.429241401828	600.8101525887673	-426.2666941137693	1222.392282085352	488.2549768330193	-399.0309390291762	1265.358653639472	408.6455292827899	-347.4007528180441	1181.630277343468	265.514265184568	-398.3632479609347	1235.872359563059	186.1708531744435	-332.4711572308356	1168.138619424606	97.47426504474851	-356.254763888249	1316.536887417422	72.84335662634214	-355.9414325665384	1291.515900328288	45.74369637709015	-394.2974310935182	1107.663523651122	69.40454072570751	-302.7739952465303	1090.376832342058	833.554050443208	-104.5485100628973	1168.963226334932	647.8987887322684	-209.1752916256875	1068.524825284054	549.4953127100999	-152.5818764983059	1013.657229110936	438.2031392091553	-165.9052679018439	978.4515333932076	369.5030884787798	-208.2395363378653	829.3178513902903	388.1769472224187	-130.3619011239778	760.8082301129086	291.9337202562327	-185.7875056287961	670.6912954286665	297.0936069451392	-145.6684644528133	645.5900179046124	163.8568462445409	-163.8417585227909	606.8143576869654	185.2939616746977	-125.9321362403138	630.6913772939916	372.882753047477	-195.7782758548167	
